<?xml version="1.0" encoding="UTF-8" standalone="no"?>
<svg
   width="1080.00pt"
   height="432.00pt"
   viewBox="0 0 1080.00 432.00"
   version="1.1"
   id="svg65"
   sodipodi:docname="Figure_S1_SST_Timeline_setrended.svg"
   inkscape:version="1.4.2 (f4327f4, 2025-05-13)"
   inkscape:export-filename="Figure_S1_SST_Timeline_setrended.png"
   inkscape:export-xdpi="96"
   inkscape:export-ydpi="96"
   xmlns:inkscape="http://www.inkscape.org/namespaces/inkscape"
   xmlns:sodipodi="http://sodipodi.sourceforge.net/DTD/sodipodi-0.dtd"
   xmlns="http://www.w3.org/2000/svg"
   xmlns:svg="http://www.w3.org/2000/svg">
  <defs
     id="defs65" />
  <sodipodi:namedview
     id="namedview65"
     pagecolor="#ffffff"
     bordercolor="#000000"
     borderopacity="0.25"
     inkscape:showpageshadow="2"
     inkscape:pageopacity="0.0"
     inkscape:pagecheckerboard="0"
     inkscape:deskcolor="#d1d1d1"
     inkscape:document-units="pt"
     inkscape:zoom="0.42197806"
     inkscape:cx="863.78898"
     inkscape:cy="382.72132"
     inkscape:window-width="1366"
     inkscape:window-height="705"
     inkscape:window-x="-8"
     inkscape:window-y="-8"
     inkscape:window-maximized="1"
     inkscape:current-layer="g65" />
  <g
     class="svglite"
     id="g65">
    <defs
       id="defs1">
      <style
         type="text/css"
         id="style1"><![CDATA[
    .svglite line, .svglite polyline, .svglite polygon, .svglite path, .svglite rect, .svglite circle {
      fill: none;
      stroke: #000000;
      stroke-linecap: round;
      stroke-linejoin: round;
      stroke-miterlimit: 10.00;
    }
    .svglite text {
      white-space: pre;
    }
    .svglite g.glyphgroup path {
      fill: inherit;
      stroke: none;
    }
  ]]></style>
    </defs>
    <rect
       width="100%"
       height="100%"
       style="stroke: none; fill: #FFFFFF;"
       id="rect1" />
    <defs
       id="defs2">
      <clipPath
         id="cpMC4wMHwxMDgwLjAwfDAuMDB8NDMyLjAw">
        <rect
           x="0.00"
           y="0.00"
           width="1080.00"
           height="432.00"
           id="rect2" />
      </clipPath>
    </defs>
    <g
       clip-path="url(#cpMC4wMHwxMDgwLjAwfDAuMDB8NDMyLjAw)"
       id="g3">
      <rect
         x="0.00000000000013"
         y="-0.00000000000011"
         width="1080.00"
         height="432.00"
         style="stroke-width: 1.07; stroke: #FFFFFF; fill: #FFFFFF;"
         id="rect3" />
    </g>
    <defs
       id="defs4">
      <clipPath
         id="cpNjEuMDB8MTA3NC41Mnw0NC42OHwzNDEuOTc=">
        <rect
           x="61.00"
           y="44.68"
           width="1013.52"
           height="297.29"
           id="rect4" />
      </clipPath>
    </defs>
    <g
       clip-path="url(#cpNjEuMDB8MTA3NC41Mnw0NC42OHwzNDEuOTc=)"
       id="g20">
      <rect
         x="61.00"
         y="44.68"
         width="1013.52"
         height="297.29"
         style="stroke-width: 1.07; stroke: none; fill: #FFFFFF;"
         id="rect5" />
      <polyline
         points="61.00,240.06 61.83,228.38 62.65,226.28 63.47,228.68 64.29,227.48 65.11,225.98 65.93,236.47 66.75,234.67 67.58,236.77 68.40,241.56 69.22,214.89 70.04,201.11 70.86,200.21 71.68,199.31 72.50,191.22 73.32,201.41 74.15,204.11 74.97,202.61 75.79,201.11 76.61,199.31 77.43,197.52 78.25,193.92 79.07,192.42 79.90,191.52 80.72,196.62 81.54,188.23 82.36,171.45 83.18,156.17 84.00,154.97 84.82,154.07 85.64,152.57 86.47,151.67 87.29,150.48 88.11,149.58 88.93,148.38 89.75,146.88 90.57,145.08 91.39,143.58 92.22,142.09 93.04,140.29 93.86,157.07 94.68,169.35 95.50,166.65 96.32,165.76 97.14,159.76 97.96,147.18 98.79,139.99 99.61,136.69 100.43,135.19 101.25,126.51 102.07,114.82 102.89,107.33 103.71,106.43 104.54,103.43 105.36,108.83 106.18,105.23 107.00,99.84 107.82,98.34 108.64,96.54 109.46,88.45 110.28,94.15 111.11,98.64 111.93,100.14 112.75,93.55 113.57,92.35 114.39,94.45 115.21,97.14 116.03,90.25 116.86,98.94 117.68,119.01 118.50,123.21 119.32,123.21 120.14,117.22 120.96,110.33 121.78,102.83 122.60,92.05 123.43,92.65 124.25,94.15 125.07,94.45 125.89,91.75 126.71,82.46 127.53,83.66 128.35,87.85 129.17,89.35 130.00,81.86 130.82,82.76 131.64,79.76 132.46,81.56 133.28,78.86 134.10,85.76 134.92,91.45 135.75,92.95 136.57,87.25 137.39,83.06 138.21,84.26 139.03,80.66 139.85,87.25 140.67,93.55 141.49,96.54 142.32,104.63 143.14,109.13 143.96,110.92 144.78,117.22 145.60,113.02 146.42,117.22 147.24,125.01 148.07,124.71 148.89,123.51 149.71,131.30 150.53,128.60 151.35,126.80 152.17,126.51 152.99,129.20 153.81,130.40 154.64,132.20 155.46,129.50 156.28,127.40 157.10,128.60 157.92,127.40 158.74,118.42 159.56,118.71 160.39,128.30 161.21,136.39 162.03,138.19 162.85,138.19 163.67,138.49 164.49,135.19 165.31,132.50 166.13,143.88 166.96,150.48 167.78,151.07 168.60,150.77 169.42,153.77 170.24,153.47 171.06,155.57 171.88,157.37 172.71,155.57 173.53,156.17 174.35,149.88 175.17,155.87 175.99,158.27 176.81,158.56 177.63,158.56 178.45,162.46 179.28,164.26 180.10,163.66 180.92,157.37 181.74,160.06 182.56,164.26 183.38,167.55 184.20,165.76 185.03,162.46 185.85,163.06 186.67,167.25 187.49,169.65 188.31,174.74 189.13,173.55 189.95,174.45 190.77,178.64 191.60,176.84 192.42,174.45 193.24,174.45 194.06,177.14 194.88,178.94 195.70,181.04 196.52,181.04 197.34,181.34 198.17,183.43 198.99,185.53 199.81,187.63 200.63,189.43 201.45,194.82 202.27,195.42 203.09,196.92 203.92,195.42 204.74,198.12 205.56,198.71 206.38,199.01 207.20,199.91 208.02,202.31 208.84,204.71 209.66,205.31 210.49,206.51 211.31,208.90 212.13,210.10 212.95,210.40 213.77,212.20 214.59,214.89 215.41,214.30 216.24,215.49 217.06,222.68 217.88,236.47 218.70,236.77 219.52,233.17 220.34,216.99 221.16,209.50 221.98,207.40 222.81,214.59 223.63,223.28 224.45,222.68 225.27,222.39 226.09,222.39 226.91,225.08 227.73,234.07 228.56,233.47 229.38,234.67 230.20,234.97 231.02,236.77 231.84,240.66 232.66,240.96 233.48,243.96 234.30,243.36 235.13,244.26 235.95,246.95 236.77,249.05 237.59,246.36 238.41,243.66 239.23,248.15 240.05,255.64 240.88,256.84 241.70,256.24 242.52,253.55 243.34,249.95 244.16,243.96 244.98,253.85 245.80,259.84 246.62,256.24 247.45,259.24 248.27,264.33 249.09,264.03 249.91,262.53 250.73,264.33 251.55,264.63 252.37,263.43 253.20,264.93 254.02,272.12 254.84,276.32 255.66,276.32 256.48,273.62 257.30,276.62 258.12,279.91 258.94,282.91 259.77,281.11 260.59,286.80 261.41,289.50 262.23,298.49 263.05,299.99 263.87,291.90 264.69,286.80 265.51,288.90 266.34,291.60 267.16,294.00 267.98,296.39 268.80,298.79 269.62,306.88 270.44,295.49 271.26,297.59 272.09,297.29 272.91,296.99 273.73,298.19 274.55,296.99 275.37,295.49 276.19,303.28 277.01,309.88 277.83,314.97 278.66,317.37 279.48,310.48 280.30,307.78 281.12,313.77 281.94,313.77 282.76,313.47 283.58,317.37 284.41,309.28 285.23,311.07 286.05,314.67 286.87,318.27 287.69,311.07 288.51,307.18 289.33,315.57 290.15,311.37 290.98,313.17 291.80,326.36 292.62,328.45 293.44,315.87 294.26,315.87 295.08,320.66 295.90,308.68 296.73,302.98 297.55,298.19 298.37,295.19 299.19,294.59 300.01,291.30 300.83,293.10 301.65,294.59 302.47,293.40 303.30,285.91 304.12,279.61 304.94,285.61 305.76,289.50 306.58,288.90 307.40,285.91 308.22,288.00 309.05,300.59 309.87,303.88 310.69,302.98 311.51,299.99 312.33,295.49 313.15,294.89 313.97,294.59 314.79,298.79 315.62,306.88 316.44,306.58 317.26,305.38 318.08,304.18 318.90,290.10 319.72,286.21 320.54,286.21 321.37,284.71 322.19,283.81 323.01,281.71 323.83,278.12 324.65,279.01 325.47,275.12 326.29,269.13 327.11,263.73 327.94,264.93 328.76,267.63 329.58,268.23 330.40,268.53 331.22,268.53 332.04,268.53 332.86,278.42 333.69,280.81 334.51,291.60 335.33,280.51 336.15,269.13 336.97,267.33 337.79,265.83 338.61,264.63 339.43,269.73 340.26,280.81 341.08,282.01 341.90,278.71 342.72,278.71 343.54,281.11 344.36,281.71 345.18,280.21 346.00,263.73 346.83,255.04 347.65,252.65 348.47,253.25 349.29,251.45 350.11,249.95 350.93,246.65 351.75,246.06 352.58,243.66 353.40,237.67 354.22,235.87 355.04,235.87 355.86,236.47 356.68,244.26 357.50,241.26 358.32,232.87 359.15,226.28 359.97,226.28 360.79,229.58 361.61,234.07 362.43,228.98 363.25,219.39 364.07,218.49 364.90,216.39 365.72,215.79 366.54,214.59 367.36,210.70 368.18,210.70 369.00,197.82 369.82,189.43 370.64,190.92 371.47,192.12 372.29,208.60 373.11,210.10 373.93,197.52 374.75,196.92 375.57,199.31 376.39,199.31 377.22,197.82 378.04,196.02 378.86,194.52 379.68,192.72 380.50,190.92 381.32,189.13 382.14,195.42 382.96,197.82 383.79,198.12 384.61,197.52 385.43,202.01 386.25,202.01 387.07,200.51 387.89,192.12 388.71,173.85 389.54,169.95 390.36,171.15 391.18,172.65 392.00,172.95 392.82,172.05 393.64,170.85 394.46,167.25 395.28,178.34 396.11,192.42 396.93,184.63 397.75,159.16 398.57,141.79 399.39,139.99 400.21,139.69 401.03,145.68 401.86,151.07 402.68,150.18 403.50,143.88 404.32,158.86 405.14,172.65 405.96,157.37 406.78,135.49 407.60,125.01 408.43,125.01 409.25,137.29 410.07,139.69 410.89,138.19 411.71,152.57 412.53,162.46 413.35,163.66 414.17,158.86 415.00,153.47 415.82,145.08 416.64,139.39 417.46,135.19 418.28,123.21 419.10,113.32 419.92,113.32 420.75,110.62 421.57,109.13 422.39,113.32 423.21,120.21 424.03,120.21 424.85,122.91 425.67,136.39 426.49,135.19 427.32,133.40 428.14,133.10 428.96,133.40 429.78,131.30 430.60,111.22 431.42,99.84 432.24,100.74 433.07,105.23 433.89,94.74 434.71,88.15 435.53,86.06 436.35,104.03 437.17,113.92 437.99,112.12 438.81,104.03 439.64,103.73 440.46,107.93 441.28,108.53 442.10,121.11 442.92,140.89 443.74,138.49 444.56,132.20 445.39,132.50 446.21,135.79 447.03,134.89 447.85,137.89 448.67,148.38 449.49,151.07 450.31,146.58 451.13,143.28 451.96,148.98 452.78,156.47 453.60,160.36 454.42,160.36 455.24,155.27 456.06,159.76 456.88,163.36 457.71,163.96 458.53,163.96 459.35,160.96 460.17,153.77 460.99,154.37 461.81,152.27 462.63,142.09 463.45,145.98 464.28,153.77 465.10,154.67 465.92,157.67 466.74,157.67 467.56,162.76 468.38,168.15 469.20,170.55 470.03,162.76 470.85,155.57 471.67,151.97 472.49,150.18 473.31,150.48 474.13,148.38 474.95,155.27 475.77,163.36 476.60,171.75 477.42,169.95 478.24,163.06 479.06,165.46 479.88,169.35 480.70,168.15 481.52,169.35 482.34,170.25 483.17,166.65 483.99,170.25 484.81,171.45 485.63,181.04 486.45,189.13 487.27,187.93 488.09,184.03 488.92,182.83 489.74,181.64 490.56,181.94 491.38,181.04 492.20,180.44 493.02,180.74 493.84,184.33 494.66,189.43 495.49,190.62 496.31,189.13 497.13,190.33 497.95,194.22 498.77,194.82 499.59,199.31 500.41,207.40 501.24,208.90 502.06,208.90 502.88,213.10 503.70,216.09 504.52,219.09 505.34,222.39 506.16,225.98 506.98,226.58 507.81,226.28 508.63,227.18 509.45,228.38 510.27,230.18 511.09,229.88 511.91,231.37 512.73,231.97 513.56,243.66 514.38,250.55 515.20,251.45 516.02,246.95 516.84,247.85 517.66,248.45 518.48,247.55 519.30,249.35 520.13,251.75 520.95,255.64 521.77,257.74 522.59,257.44 523.41,253.25 524.23,250.55 525.05,248.45 525.88,253.55 526.70,258.04 527.52,259.84 528.34,256.24 529.16,255.94 529.98,258.04 530.80,256.84 531.62,255.94 532.45,256.54 533.27,260.14 534.09,261.04 534.91,259.84 535.73,259.84 536.55,255.94 537.37,254.74 538.20,254.74 539.02,256.84 539.84,257.14 540.66,256.54 541.48,266.13 542.30,261.04 543.12,261.34 543.94,267.33 544.77,270.92 545.59,273.92 546.41,276.02 547.23,276.62 548.05,276.92 548.87,281.41 549.69,282.01 550.51,283.51 551.34,289.20 552.16,292.50 552.98,286.51 553.80,282.61 554.62,281.11 555.44,281.71 556.26,281.71 557.09,281.71 557.91,279.31 558.73,283.21 559.55,284.41 560.37,281.41 561.19,282.31 562.01,284.11 562.83,287.10 563.66,289.80 564.48,287.70 565.30,290.10 566.12,294.00 566.94,294.59 567.76,292.20 568.58,291.60 569.41,286.21 570.23,282.01 571.05,281.11 571.87,282.01 572.69,283.21 573.51,285.31 574.33,282.01 575.15,275.72 575.98,273.32 576.80,274.22 577.62,271.22 578.44,266.43 579.26,267.33 580.08,269.73 580.90,271.82 581.73,274.22 582.55,292.50 583.37,297.59 584.19,297.29 585.01,293.70 585.83,288.60 586.65,290.10 587.47,288.90 588.30,288.00 589.12,281.41 589.94,281.41 590.76,282.01 591.58,282.01 592.40,282.31 593.22,280.21 594.05,279.31 594.87,285.31 595.69,288.90 596.51,291.60 597.33,295.49 598.15,291.30 598.97,283.21 599.79,280.51 600.62,277.52 601.44,270.03 602.26,269.73 603.08,270.33 603.90,272.72 604.72,271.52 605.54,266.43 606.37,269.43 607.19,272.42 608.01,272.72 608.83,271.52 609.65,270.62 610.47,270.92 611.29,270.33 612.11,271.52 612.94,272.12 613.76,272.72 614.58,273.02 615.40,273.62 616.22,275.42 617.04,276.62 617.86,277.52 618.68,286.21 619.51,292.20 620.33,279.31 621.15,272.72 621.97,273.32 622.79,280.81 623.61,286.51 624.43,286.51 625.26,281.41 626.08,273.92 626.90,266.43 627.72,267.63 628.54,267.33 629.36,264.63 630.18,265.23 631.00,265.23 631.83,262.53 632.65,262.83 633.47,263.13 634.29,260.44 635.11,250.85 635.93,249.35 636.75,249.05 637.58,248.45 638.40,247.85 639.22,244.26 640.04,240.36 640.86,235.87 641.68,240.96 642.50,248.75 643.32,251.15 644.15,221.49 644.97,213.10 645.79,210.70 646.61,203.51 647.43,198.42 648.25,196.02 649.07,193.32 649.90,183.43 650.72,178.34 651.54,184.33 652.36,190.62 653.18,196.32 654.00,203.51 654.82,208.60 655.64,204.71 656.47,201.41 657.29,199.31 658.11,199.01 658.93,201.71 659.75,199.31 660.57,197.82 661.39,196.62 662.22,195.42 663.04,193.92 663.86,191.82 664.68,190.03 665.50,188.53 666.32,188.53 667.14,188.23 667.96,182.83 668.79,175.04 669.61,173.85 670.43,167.55 671.25,160.66 672.07,160.06 672.89,159.76 673.71,159.16 674.54,150.77 675.36,132.80 676.18,128.30 677.00,133.10 677.82,135.79 678.64,137.29 679.46,136.39 680.28,132.20 681.11,131.00 681.93,119.31 682.75,109.43 683.57,107.63 684.39,110.62 685.21,107.63 686.03,107.63 686.85,115.72 687.68,116.92 688.50,118.42 689.32,114.82 690.14,115.12 690.96,107.93 691.78,106.73 692.60,105.83 693.43,106.43 694.25,107.03 695.07,120.21 695.89,140.29 696.71,154.37 697.53,156.47 698.35,155.57 699.17,157.07 700.00,156.17 700.82,150.48 701.64,146.28 702.46,132.80 703.28,123.81 704.10,127.70 704.92,136.69 705.75,132.50 706.57,119.31 707.39,116.92 708.21,113.62 709.03,111.22 709.85,111.82 710.67,112.72 711.49,107.03 712.32,100.14 713.14,92.35 713.96,90.85 714.78,91.75 715.60,93.85 716.42,97.14 717.24,93.25 718.07,86.95 718.89,86.06 719.71,87.85 720.53,83.66 721.35,83.66 722.17,87.25 722.99,86.36 723.81,86.06 724.64,77.07 725.46,77.07 726.28,81.26 727.10,89.65 727.92,77.97 728.74,73.47 729.56,70.77 730.39,68.68 731.21,69.58 732.03,77.07 732.85,77.97 733.67,78.56 734.49,81.56 735.31,85.76 736.13,84.56 736.96,82.16 737.78,82.16 738.60,78.27 739.42,88.45 740.24,90.85 741.06,76.77 741.88,79.76 742.71,74.37 743.53,73.47 744.35,72.57 745.17,74.67 745.99,80.36 746.81,81.56 747.63,82.46 748.45,85.16 749.28,83.06 750.10,78.56 750.92,78.27 751.74,87.25 752.56,89.35 753.38,90.85 754.20,94.45 755.02,93.55 755.85,100.74 756.67,107.63 757.49,108.83 758.31,109.73 759.13,106.13 759.95,103.13 760.77,112.12 761.60,118.12 762.42,124.41 763.24,125.01 764.06,122.61 764.88,126.51 765.70,131.00 766.52,132.50 767.34,134.59 768.17,128.00 768.99,127.10 769.81,125.31 770.63,126.80 771.45,129.20 772.27,131.60 773.09,133.40 773.92,137.89 774.74,142.09 775.56,143.88 776.38,142.68 777.20,141.19 778.02,138.49 778.84,142.09 779.66,147.48 780.49,147.78 781.31,151.07 782.13,158.27 782.95,159.76 783.77,160.96 784.59,159.76 785.41,161.26 786.24,164.56 787.06,166.95 787.88,175.94 788.70,174.15 789.52,171.75 790.34,168.75 791.16,166.36 791.98,168.75 792.81,172.95 793.63,172.35 794.45,187.33 795.27,189.73 796.09,187.33 796.91,185.23 797.73,183.43 798.56,184.03 799.38,177.74 800.20,174.15 801.02,174.74 801.84,174.15 802.66,172.65 803.48,172.95 804.30,174.45 805.13,178.94 805.95,180.14 806.77,181.64 807.59,181.64 808.41,183.13 809.23,187.03 810.05,190.92 810.88,191.82 811.70,193.32 812.52,195.72 813.34,196.92 814.16,199.61 814.98,204.11 815.80,205.01 816.62,204.11 817.45,204.41 818.27,203.21 819.09,203.21 819.91,205.01 820.73,205.91 821.55,204.71 822.37,202.61 823.19,206.80 824.02,208.90 824.84,208.30 825.66,204.11 826.48,200.51 827.30,208.00 828.12,211.60 828.94,212.80 829.77,210.70 830.59,213.10 831.41,215.19 832.23,212.80 833.05,214.30 833.87,221.19 834.69,230.48 835.51,236.47 836.34,236.17 837.16,237.97 837.98,240.66 838.80,248.45 839.62,250.25 840.44,249.65 841.26,247.25 842.09,248.15 842.91,250.85 843.73,254.74 844.55,256.54 845.37,257.44 846.19,258.64 847.01,259.84 847.83,257.74 848.66,258.04 849.48,260.44 850.30,259.84 851.12,264.93 851.94,268.53 852.76,263.73 853.58,254.45 854.41,255.04 855.23,256.54 856.05,257.44 856.87,261.34 857.69,265.23 858.51,267.63 859.33,270.62 860.15,265.83 860.98,264.03 861.80,263.43 862.62,263.73 863.44,271.82 864.26,277.22 865.08,278.12 865.90,279.01 866.73,281.41 867.55,283.21 868.37,285.01 869.19,285.61 870.01,282.91 870.83,278.12 871.65,273.92 872.47,269.73 873.30,264.93 874.12,263.73 874.94,266.73 875.76,268.23 876.58,269.73 877.40,273.02 878.22,277.52 879.05,277.22 879.87,273.62 880.69,272.72 881.51,274.22 882.33,273.02 883.15,271.52 883.97,270.92 884.79,271.22 885.62,272.72 886.44,274.22 887.26,279.91 888.08,282.01 888.90,279.31 889.72,281.11 890.54,284.11 891.36,286.51 892.19,286.80 893.01,284.71 893.83,282.61 894.65,280.51 895.47,282.31 896.29,286.51 897.11,285.61 897.94,281.11 898.76,283.51 899.58,286.51 900.40,284.41 901.22,282.01 902.04,285.91 902.86,289.20 903.68,289.80 904.51,291.60 905.33,292.50 906.15,294.89 906.97,297.59 907.79,297.89 908.61,294.89 909.43,291.60 910.26,291.00 911.08,288.90 911.90,286.51 912.72,285.61 913.54,289.80 914.36,290.40 915.18,290.10 916.00,286.51 916.83,283.21 917.65,282.61 918.47,283.21 919.29,284.71 920.11,288.60 920.93,290.10 921.75,289.50 922.58,288.90 923.40,288.30 924.22,284.71 925.04,286.80 925.86,286.21 926.68,285.31 927.50,284.71 928.32,284.11 929.15,279.01 929.97,281.41 930.79,282.01 931.61,284.41 932.43,287.70 933.25,288.90 934.07,282.01 934.90,279.01 935.72,280.51 936.54,284.71 937.36,287.40 938.18,290.10 939.00,292.20 939.82,292.20 940.64,287.10 941.47,270.92 942.29,273.62 943.11,279.61 943.93,280.51 944.75,280.51 945.57,278.42 946.39,269.13 947.22,264.33 948.04,261.34 948.86,258.94 949.68,256.24 950.50,262.24 951.32,264.93 952.14,275.12 952.96,281.41 953.79,280.51 954.61,271.52 955.43,266.73 956.25,255.94 957.07,246.65 957.89,244.26 958.71,232.87 959.53,231.67 960.36,237.07 961.18,239.46 962.00,229.58 962.82,216.69 963.64,215.19 964.46,214.00 965.28,210.40 966.11,211.60 966.93,211.00 967.75,211.00 968.57,222.98 969.39,221.19 970.21,205.01 971.03,202.31 971.85,202.61 972.68,197.22 973.50,199.91 974.32,207.40 975.14,202.01 975.96,200.81 976.78,202.61 977.60,190.62 978.43,176.84 979.25,169.95 980.07,164.56 980.89,168.75 981.71,169.65 982.53,167.55 983.35,155.87 984.17,140.89 985.00,124.71 985.82,126.80 986.64,137.89 987.46,140.29 988.28,149.58 989.10,159.46 989.92,162.46 990.75,162.46 991.57,148.08 992.39,139.39 993.21,139.39 994.03,139.39 994.85,132.80 995.67,124.11 996.49,120.81 997.32,119.31 998.14,118.71 998.96,116.92 999.78,116.02 1000.60,111.52 1001.42,121.11 1002.24,122.61 1003.07,122.31 1003.89,111.52 1004.71,108.53 1005.53,105.83 1006.35,102.53 1007.17,109.73 1007.99,108.23 1008.81,107.63 1009.64,107.33 1010.46,105.23 1011.28,108.53 1012.10,116.02 1012.92,120.21 1013.74,119.91 1014.56,116.62 1015.39,118.71 1016.21,122.61 1017.03,119.61 1017.85,121.41 1018.67,124.41 1019.49,125.91 1020.31,126.21 1021.13,107.63 1021.96,93.25 1022.78,93.85 1023.60,98.94 1024.42,99.54 1025.24,88.15 1026.06,73.47 1026.88,72.57 1027.70,74.07 1028.53,77.37 1029.35,75.27 1030.17,69.88 1030.99,71.67 1031.81,76.47 1032.63,76.77 1033.45,72.87 1034.28,61.19 1035.10,61.49 1035.92,66.58 1036.74,73.47 1037.56,77.37 1038.38,81.56 1039.20,87.85 1040.02,84.26 1040.85,77.97 1041.67,79.16 1042.49,82.16 1043.31,80.66 1044.13,77.07 1044.95,80.06 1045.77,77.07 1046.60,78.27 1047.42,89.95 1048.24,100.14 1049.06,104.03 1049.88,110.92 1050.70,111.22 1051.52,103.43 1052.34,99.54 1053.17,103.13 1053.99,107.93 1054.81,109.13 1055.63,107.63 1056.45,105.83 1057.27,109.73 1058.09,110.62 1058.92,110.62 1059.74,115.72 1060.56,120.51 1061.38,117.52 1062.20,108.23 1063.02,109.43 1063.84,109.43 1064.66,110.03 1065.49,113.92 1066.31,128.00 1067.13,130.10 1067.95,129.80 1068.77,129.20 1069.59,135.19 1070.41,128.00 1071.24,134.30 1072.06,139.99 1072.88,137.89 1073.70,143.88 1074.52,144.18 "
         style="stroke-width: 2.13; stroke-linecap: butt;"
         id="polyline5" />
      <polyline
         points="61.00,239.61 61.83,237.93 62.65,236.26 63.47,234.59 64.29,232.93 65.11,231.28 65.93,229.65 66.75,228.04 67.58,226.44 68.40,224.85 69.22,223.25 70.04,221.68 70.86,220.12 71.68,218.58 72.50,217.06 73.32,215.56 74.15,214.05 74.97,212.55 75.79,211.05 76.61,209.56 77.43,208.07 78.25,206.58 79.07,205.08 79.90,203.55 80.72,202.02 81.54,200.47 82.36,198.91 83.18,197.33 84.00,195.74 84.82,194.14 85.64,192.53 86.47,190.92 87.29,189.29 88.11,187.66 88.93,186.03 89.75,184.40 90.57,182.77 91.39,181.14 92.22,179.50 93.04,177.87 93.86,176.25 94.68,174.62 95.50,173.00 96.32,171.37 97.14,169.73 97.96,168.08 98.79,166.45 99.61,164.83 100.43,163.21 101.25,161.58 102.07,159.96 102.89,158.34 103.71,156.73 104.54,155.14 105.36,153.59 106.18,152.07 107.00,150.58 107.82,149.14 108.64,147.73 109.46,146.36 110.28,145.04 111.11,143.75 111.93,142.49 112.75,141.26 113.57,140.06 114.39,138.89 115.21,137.76 116.03,136.67 116.86,135.59 117.68,134.55 118.50,133.54 119.32,132.57 120.14,131.63 120.96,130.75 121.78,129.93 122.60,129.15 123.43,128.42 124.25,127.72 125.07,127.08 125.89,126.51 126.71,126.00 127.53,125.57 128.35,125.20 129.17,124.89 130.00,124.63 130.82,124.41 131.64,124.24 132.46,124.14 133.28,124.10 134.10,124.12 134.92,124.18 135.75,124.30 136.57,124.49 137.39,124.74 138.21,125.06 139.03,125.46 139.85,125.94 140.67,126.49 141.49,127.12 142.32,127.82 143.14,128.58 143.96,129.41 144.78,130.29 145.60,131.22 146.42,132.18 147.24,133.19 148.07,134.24 148.89,135.31 149.71,136.41 150.53,137.52 151.35,138.63 152.17,139.74 152.99,140.85 153.81,141.96 154.64,143.07 155.46,144.19 156.28,145.29 157.10,146.37 157.92,147.43 158.74,148.48 159.56,149.50 160.39,150.50 161.21,151.49 162.03,152.47 162.85,153.43 163.67,154.39 164.49,155.32 165.31,156.24 166.13,157.14 166.96,158.03 167.78,158.91 168.60,159.80 169.42,160.68 170.24,161.55 171.06,162.43 171.88,163.31 172.71,164.20 173.53,165.08 174.35,165.98 175.17,166.90 175.99,167.85 176.81,168.82 177.63,169.80 178.45,170.79 179.28,171.80 180.10,172.82 180.92,173.86 181.74,174.92 182.56,176.01 183.38,177.11 184.20,178.23 185.03,179.36 185.85,180.50 186.67,181.66 187.49,182.83 188.31,184.02 189.13,185.21 189.95,186.43 190.77,187.66 191.60,188.89 192.42,190.15 193.24,191.42 194.06,192.71 194.88,194.03 195.70,195.37 196.52,196.75 197.34,198.13 198.17,199.53 198.99,200.93 199.81,202.33 200.63,203.73 201.45,205.10 202.27,206.46 203.09,207.81 203.92,209.15 204.74,210.48 205.56,211.82 206.38,213.16 207.20,214.51 208.02,215.85 208.84,217.21 209.66,218.59 210.49,219.98 211.31,221.39 212.13,222.81 212.95,224.23 213.77,225.66 214.59,227.08 215.41,228.49 216.24,229.89 217.06,231.29 217.88,232.68 218.70,234.06 219.52,235.43 220.34,236.78 221.16,238.12 221.98,239.43 222.81,240.73 223.63,242.01 224.45,243.28 225.27,244.55 226.09,245.81 226.91,247.07 227.73,248.33 228.56,249.59 229.38,250.86 230.20,252.12 231.02,253.39 231.84,254.67 232.66,255.94 233.48,257.20 234.30,258.45 235.13,259.68 235.95,260.89 236.77,262.08 237.59,263.24 238.41,264.36 239.23,265.45 240.05,266.52 240.88,267.56 241.70,268.58 242.52,269.57 243.34,270.55 244.16,271.51 244.98,272.45 245.80,273.39 246.62,274.33 247.45,275.27 248.27,276.20 249.09,277.13 249.91,278.06 250.73,278.98 251.55,279.90 252.37,280.83 253.20,281.74 254.02,282.65 254.84,283.54 255.66,284.41 256.48,285.26 257.30,286.10 258.12,286.91 258.94,287.69 259.77,288.46 260.59,289.19 261.41,289.90 262.23,290.59 263.05,291.27 263.87,291.95 264.69,292.62 265.51,293.30 266.34,293.97 267.16,294.66 267.98,295.35 268.80,296.04 269.62,296.72 270.44,297.39 271.26,298.03 272.09,298.65 272.91,299.23 273.73,299.79 274.55,300.34 275.37,300.87 276.19,301.38 277.01,301.85 277.83,302.30 278.66,302.73 279.48,303.14 280.30,303.54 281.12,303.93 281.94,304.32 282.76,304.67 283.58,305.00 284.41,305.30 285.23,305.58 286.05,305.83 286.87,306.09 287.69,306.33 288.51,306.57 289.33,306.80 290.15,307.00 290.98,307.19 291.80,307.35 292.62,307.49 293.44,307.60 294.26,307.69 295.08,307.76 295.90,307.81 296.73,307.86 297.55,307.86 298.37,307.84 299.19,307.80 300.01,307.72 300.83,307.62 301.65,307.50 302.47,307.37 303.30,307.22 304.12,307.05 304.94,306.84 305.76,306.61 306.58,306.35 307.40,306.08 308.22,305.81 309.05,305.54 309.87,305.29 310.69,305.02 311.51,304.74 312.33,304.45 313.15,304.14 313.97,303.81 314.79,303.48 315.62,303.15 316.44,302.79 317.26,302.41 318.08,302.02 318.90,301.59 319.72,301.15 320.54,300.70 321.37,300.22 322.19,299.72 323.01,299.20 323.83,298.65 324.65,298.09 325.47,297.50 326.29,296.88 327.11,296.24 327.94,295.58 328.76,294.90 329.58,294.21 330.40,293.50 331.22,292.76 332.04,291.99 332.86,291.17 333.69,290.32 334.51,289.41 335.33,288.45 336.15,287.44 336.97,286.39 337.79,285.28 338.61,284.11 339.43,282.88 340.26,281.58 341.08,280.22 341.90,278.80 342.72,277.33 343.54,275.81 344.36,274.24 345.18,272.62 346.00,270.96 346.83,269.26 347.65,267.52 348.47,265.77 349.29,264.01 350.11,262.25 350.93,260.49 351.75,258.72 352.58,256.95 353.40,255.20 354.22,253.44 355.04,251.69 355.86,249.93 356.68,248.19 357.50,246.46 358.32,244.73 359.15,243.01 359.97,241.30 360.79,239.61 361.61,237.93 362.43,236.26 363.25,234.59 364.07,232.93 364.90,231.28 365.72,229.65 366.54,228.04 367.36,226.44 368.18,224.85 369.00,223.25 369.82,221.68 370.64,220.12 371.47,218.58 372.29,217.06 373.11,215.56 373.93,214.05 374.75,212.55 375.57,211.05 376.39,209.56 377.22,208.07 378.04,206.58 378.86,205.08 379.68,203.55 380.50,202.02 381.32,200.47 382.14,198.91 382.96,197.33 383.79,195.74 384.61,194.14 385.43,192.53 386.25,190.92 387.07,189.29 387.89,187.66 388.71,186.03 389.54,184.40 390.36,182.77 391.18,181.14 392.00,179.50 392.82,177.87 393.64,176.25 394.46,174.62 395.28,173.00 396.11,171.37 396.93,169.73 397.75,168.08 398.57,166.45 399.39,164.83 400.21,163.21 401.03,161.58 401.86,159.96 402.68,158.34 403.50,156.73 404.32,155.14 405.14,153.59 405.96,152.07 406.78,150.58 407.60,149.14 408.43,147.73 409.25,146.36 410.07,145.04 410.89,143.75 411.71,142.49 412.53,141.26 413.35,140.06 414.17,138.89 415.00,137.76 415.82,136.67 416.64,135.59 417.46,134.55 418.28,133.54 419.10,132.57 419.92,131.63 420.75,130.75 421.57,129.93 422.39,129.15 423.21,128.42 424.03,127.72 424.85,127.08 425.67,126.51 426.49,126.00 427.32,125.57 428.14,125.20 428.96,124.89 429.78,124.63 430.60,124.41 431.42,124.24 432.24,124.14 433.07,124.10 433.89,124.12 434.71,124.18 435.53,124.30 436.35,124.49 437.17,124.74 437.99,125.06 438.81,125.46 439.64,125.94 440.46,126.49 441.28,127.12 442.10,127.82 442.92,128.58 443.74,129.41 444.56,130.29 445.39,131.22 446.21,132.18 447.03,133.19 447.85,134.24 448.67,135.31 449.49,136.41 450.31,137.52 451.13,138.63 451.96,139.74 452.78,140.85 453.60,141.96 454.42,143.07 455.24,144.19 456.06,145.29 456.88,146.37 457.71,147.43 458.53,148.48 459.35,149.50 460.17,150.50 460.99,151.49 461.81,152.47 462.63,153.43 463.45,154.39 464.28,155.32 465.10,156.24 465.92,157.14 466.74,158.03 467.56,158.91 468.38,159.80 469.20,160.68 470.03,161.55 470.85,162.43 471.67,163.31 472.49,164.20 473.31,165.08 474.13,165.98 474.95,166.90 475.77,167.85 476.60,168.82 477.42,169.80 478.24,170.79 479.06,171.80 479.88,172.82 480.70,173.86 481.52,174.92 482.34,176.01 483.17,177.11 483.99,178.23 484.81,179.36 485.63,180.50 486.45,181.66 487.27,182.83 488.09,184.02 488.92,185.21 489.74,186.43 490.56,187.66 491.38,188.89 492.20,190.15 493.02,191.42 493.84,192.71 494.66,194.03 495.49,195.37 496.31,196.75 497.13,198.13 497.95,199.53 498.77,200.93 499.59,202.33 500.41,203.73 501.24,205.10 502.06,206.46 502.88,207.81 503.70,209.15 504.52,210.48 505.34,211.82 506.16,213.16 506.98,214.51 507.81,215.85 508.63,217.21 509.45,218.59 510.27,219.98 511.09,221.39 511.91,222.81 512.73,224.23 513.56,225.66 514.38,227.08 515.20,228.49 516.02,229.89 516.84,231.29 517.66,232.68 518.48,234.06 519.30,235.43 520.13,236.78 520.95,238.12 521.77,239.43 522.59,240.73 523.41,242.01 524.23,243.28 525.05,244.55 525.88,245.81 526.70,247.07 527.52,248.33 528.34,249.59 529.16,250.86 529.98,252.12 530.80,253.39 531.62,254.67 532.45,255.94 533.27,257.20 534.09,258.45 534.91,259.68 535.73,260.89 536.55,262.08 537.37,263.24 538.20,264.36 539.02,265.45 539.84,266.52 540.66,267.56 541.48,268.58 542.30,269.57 543.12,270.55 543.94,271.51 544.77,272.45 545.59,273.39 546.41,274.33 547.23,275.27 548.05,276.20 548.87,277.13 549.69,278.06 550.51,278.98 551.34,279.90 552.16,280.83 552.98,281.74 553.80,282.65 554.62,283.54 555.44,284.41 556.26,285.26 557.09,286.10 557.91,286.91 558.73,287.69 559.55,288.46 560.37,289.19 561.19,289.90 562.01,290.59 562.83,291.27 563.66,291.95 564.48,292.62 565.30,293.30 566.12,293.97 566.94,294.66 567.76,295.35 568.58,296.04 569.41,296.72 570.23,297.39 571.05,298.03 571.87,298.65 572.69,299.23 573.51,299.79 574.33,300.34 575.15,300.87 575.98,301.38 576.80,301.85 577.62,302.30 578.44,302.73 579.26,303.14 580.08,303.54 580.90,303.93 581.73,304.32 582.55,304.67 583.37,305.00 584.19,305.30 585.01,305.58 585.83,305.83 586.65,306.09 587.47,306.33 588.30,306.57 589.12,306.80 589.94,307.00 590.76,307.19 591.58,307.35 592.40,307.49 593.22,307.60 594.05,307.69 594.87,307.76 595.69,307.81 596.51,307.86 597.33,307.86 598.15,307.84 598.97,307.80 599.79,307.72 600.62,307.62 601.44,307.50 602.26,307.37 603.08,307.22 603.90,307.05 604.72,306.84 605.54,306.61 606.37,306.35 607.19,306.08 608.01,305.81 608.83,305.54 609.65,305.29 610.47,305.02 611.29,304.74 612.11,304.45 612.94,304.14 613.76,303.81 614.58,303.48 615.40,303.15 616.22,302.79 617.04,302.41 617.86,302.02 618.68,301.59 619.51,301.15 620.33,300.70 621.15,300.22 621.97,299.72 622.79,299.20 623.61,298.65 624.43,298.09 625.26,297.50 626.08,296.88 626.90,296.24 627.72,295.58 628.54,294.90 629.36,294.21 630.18,293.50 631.00,292.76 631.83,291.99 632.65,291.17 633.47,290.32 634.29,289.41 635.11,288.45 635.93,287.44 636.75,286.39 637.58,285.28 638.40,284.11 639.22,282.88 640.04,281.58 640.86,280.22 641.68,278.80 642.50,277.33 643.32,275.81 644.15,274.24 644.97,272.62 645.79,270.96 646.61,269.26 647.43,267.52 648.25,265.77 649.07,264.01 649.90,262.25 650.72,260.49 651.54,258.72 652.36,256.95 653.18,255.20 654.00,253.44 654.82,251.69 655.64,249.93 656.47,248.19 657.29,246.46 658.11,244.73 658.93,243.01 659.75,241.30 660.57,239.61 661.39,237.93 662.22,236.26 663.04,234.59 663.86,232.93 664.68,231.28 665.50,229.65 666.32,228.04 667.14,226.44 667.96,224.85 668.79,223.25 669.61,221.68 670.43,220.12 671.25,218.58 672.07,217.06 672.89,215.56 673.71,214.05 674.54,212.55 675.36,211.05 676.18,209.56 677.00,208.07 677.82,206.58 678.64,205.08 679.46,203.55 680.28,202.02 681.11,200.47 681.93,198.91 682.75,197.33 683.57,195.74 684.39,194.14 685.21,192.53 686.03,190.92 686.85,189.29 687.68,187.66 688.50,186.03 689.32,184.40 690.14,182.77 690.96,181.14 691.78,179.50 692.60,177.87 693.43,176.25 694.25,174.62 695.07,173.00 695.89,171.37 696.71,169.73 697.53,168.08 698.35,166.45 699.17,164.83 700.00,163.21 700.82,161.58 701.64,159.96 702.46,158.34 703.28,156.73 704.10,155.14 704.92,153.59 705.75,152.07 706.57,150.58 707.39,149.14 708.21,147.73 709.03,146.36 709.85,145.04 710.67,143.75 711.49,142.49 712.32,141.26 713.14,140.06 713.96,138.89 714.78,137.76 715.60,136.67 716.42,135.59 717.24,134.55 718.07,133.54 718.89,132.57 719.71,131.63 720.53,130.75 721.35,129.93 722.17,129.15 722.99,128.42 723.81,127.72 724.64,127.08 725.46,126.51 726.28,126.00 727.10,125.57 727.92,125.20 728.74,124.89 729.56,124.63 730.39,124.41 731.21,124.24 732.03,124.14 732.85,124.10 733.67,124.12 734.49,124.18 735.31,124.30 736.13,124.49 736.96,124.74 737.78,125.06 738.60,125.46 739.42,125.94 740.24,126.49 741.06,127.12 741.88,127.82 742.71,128.58 743.53,129.41 744.35,130.29 745.17,131.22 745.99,132.18 746.81,133.19 747.63,134.24 748.45,135.31 749.28,136.41 750.10,137.52 750.92,138.63 751.74,139.74 752.56,140.85 753.38,141.96 754.20,143.07 755.02,144.19 755.85,145.29 756.67,146.37 757.49,147.43 758.31,148.48 759.13,149.50 759.95,150.50 760.77,151.49 761.60,152.47 762.42,153.43 763.24,154.39 764.06,155.32 764.88,156.24 765.70,157.14 766.52,158.03 767.34,158.91 768.17,159.80 768.99,160.68 769.81,161.55 770.63,162.43 771.45,163.31 772.27,164.20 773.09,165.08 773.92,165.98 774.74,166.90 775.56,167.85 776.38,168.82 777.20,169.80 778.02,170.79 778.84,171.80 779.66,172.82 780.49,173.86 781.31,174.92 782.13,176.01 782.95,177.11 783.77,178.23 784.59,179.36 785.41,180.50 786.24,181.66 787.06,182.83 787.88,184.02 788.70,185.21 789.52,186.43 790.34,187.66 791.16,188.89 791.98,190.15 792.81,191.42 793.63,192.71 794.45,194.03 795.27,195.37 796.09,196.75 796.91,198.13 797.73,199.53 798.56,200.93 799.38,202.33 800.20,203.73 801.02,205.10 801.84,206.46 802.66,207.81 803.48,209.15 804.30,210.48 805.13,211.82 805.95,213.16 806.77,214.51 807.59,215.85 808.41,217.21 809.23,218.59 810.05,219.98 810.88,221.39 811.70,222.81 812.52,224.23 813.34,225.66 814.16,227.08 814.98,228.49 815.80,229.89 816.62,231.29 817.45,232.68 818.27,234.06 819.09,235.43 819.91,236.78 820.73,238.12 821.55,239.43 822.37,240.73 823.19,242.01 824.02,243.28 824.84,244.55 825.66,245.81 826.48,247.07 827.30,248.33 828.12,249.59 828.94,250.86 829.77,252.12 830.59,253.39 831.41,254.67 832.23,255.94 833.05,257.20 833.87,258.45 834.69,259.68 835.51,260.89 836.34,262.08 837.16,263.24 837.98,264.36 838.80,265.45 839.62,266.52 840.44,267.56 841.26,268.58 842.09,269.57 842.91,270.55 843.73,271.51 844.55,272.45 845.37,273.39 846.19,274.33 847.01,275.27 847.83,276.20 848.66,277.13 849.48,278.06 850.30,278.98 851.12,279.90 851.94,280.83 852.76,281.74 853.58,282.65 854.41,283.54 855.23,284.41 856.05,285.26 856.87,286.10 857.69,286.91 858.51,287.69 859.33,288.46 860.15,289.19 860.98,289.90 861.80,290.59 862.62,291.27 863.44,291.95 864.26,292.62 865.08,293.30 865.90,293.97 866.73,294.66 867.55,295.35 868.37,296.04 869.19,296.72 870.01,297.39 870.83,298.03 871.65,298.65 872.47,299.23 873.30,299.79 874.12,300.34 874.94,300.87 875.76,301.38 876.58,301.85 877.40,302.30 878.22,302.73 879.05,303.14 879.87,303.54 880.69,303.93 881.51,304.32 882.33,304.67 883.15,305.00 883.97,305.30 884.79,305.58 885.62,305.83 886.44,306.09 887.26,306.33 888.08,306.57 888.90,306.80 889.72,307.00 890.54,307.19 891.36,307.35 892.19,307.49 893.01,307.60 893.83,307.69 894.65,307.76 895.47,307.81 896.29,307.86 897.11,307.86 897.94,307.84 898.76,307.80 899.58,307.72 900.40,307.62 901.22,307.50 902.04,307.37 902.86,307.22 903.68,307.05 904.51,306.84 905.33,306.61 906.15,306.35 906.97,306.08 907.79,305.81 908.61,305.54 909.43,305.29 910.26,305.02 911.08,304.74 911.90,304.45 912.72,304.14 913.54,303.81 914.36,303.48 915.18,303.15 916.00,302.79 916.83,302.41 917.65,302.02 918.47,301.59 919.29,301.15 920.11,300.70 920.93,300.22 921.75,299.72 922.58,299.20 923.40,298.65 924.22,298.09 925.04,297.50 925.86,296.88 926.68,296.24 927.50,295.58 928.32,294.90 929.15,294.21 929.97,293.50 930.79,292.76 931.61,291.99 932.43,291.17 933.25,290.32 934.07,289.41 934.90,288.45 935.72,287.44 936.54,286.39 937.36,285.28 938.18,284.11 939.00,282.88 939.82,281.58 940.64,280.22 941.47,278.80 942.29,277.33 943.11,275.81 943.93,274.24 944.75,272.62 945.57,270.96 946.39,269.26 947.22,267.52 948.04,265.77 948.86,264.01 949.68,262.25 950.50,260.49 951.32,258.72 952.14,256.95 952.96,255.20 953.79,253.44 954.61,251.69 955.43,249.93 956.25,248.19 957.07,246.46 957.89,244.73 958.71,243.01 959.53,241.30 960.36,239.61 961.18,237.93 962.00,236.26 962.82,234.59 963.64,232.93 964.46,231.28 965.28,229.65 966.11,228.04 966.93,226.44 967.75,224.85 968.57,223.25 969.39,221.68 970.21,220.12 971.03,218.58 971.85,217.06 972.68,215.56 973.50,214.05 974.32,212.55 975.14,211.05 975.96,209.56 976.78,208.07 977.60,206.58 978.43,205.08 979.25,203.55 980.07,202.02 980.89,200.47 981.71,198.91 982.53,197.33 983.35,195.74 984.17,194.14 985.00,192.53 985.82,190.92 986.64,189.29 987.46,187.66 988.28,186.03 989.10,184.40 989.92,182.77 990.75,181.14 991.57,179.50 992.39,177.87 993.21,176.25 994.03,174.62 994.85,173.00 995.67,171.37 996.49,169.73 997.32,168.08 998.14,166.45 998.96,164.83 999.78,163.21 1000.60,161.58 1001.42,159.96 1002.24,158.34 1003.07,156.73 1003.89,155.14 1004.71,153.59 1005.53,152.07 1006.35,150.58 1007.17,149.14 1007.99,147.73 1008.81,146.36 1009.64,145.04 1010.46,143.75 1011.28,142.49 1012.10,141.26 1012.92,140.06 1013.74,138.89 1014.56,137.76 1015.39,136.67 1016.21,135.59 1017.03,134.55 1017.85,133.54 1018.67,132.57 1019.49,131.63 1020.31,130.75 1021.13,129.93 1021.96,129.15 1022.78,128.42 1023.60,127.72 1024.42,127.08 1025.24,126.51 1026.06,126.00 1026.88,125.57 1027.70,125.20 1028.53,124.89 1029.35,124.63 1030.17,124.41 1030.99,124.24 1031.81,124.14 1032.63,124.10 1033.45,124.12 1034.28,124.18 1035.10,124.30 1035.92,124.49 1036.74,124.74 1037.56,125.06 1038.38,125.46 1039.20,125.94 1040.02,126.49 1040.85,127.12 1041.67,127.82 1042.49,128.58 1043.31,129.41 1044.13,130.29 1044.95,131.22 1045.77,132.18 1046.60,133.19 1047.42,134.24 1048.24,135.31 1049.06,136.41 1049.88,137.52 1050.70,138.63 1051.52,139.74 1052.34,140.85 1053.17,141.96 1053.99,143.07 1054.81,144.19 1055.63,145.29 1056.45,146.37 1057.27,147.43 1058.09,148.48 1058.92,149.50 1059.74,150.50 1060.56,151.49 1061.38,152.47 1062.20,153.43 1063.02,154.39 1063.84,155.32 1064.66,156.24 1065.49,157.14 1066.31,158.03 1067.13,158.91 1067.95,159.80 1068.77,160.68 1069.59,161.55 1070.41,162.43 1071.24,163.31 1072.06,164.20 1072.88,165.08 1073.70,165.98 1074.52,166.90 "
         style="stroke-width: 2.13; stroke: #0000FF; stroke-dasharray: 11.38,11.38; stroke-linecap: butt;"
         id="polyline6" />
      <polyline
         points="61.00,208.13 61.83,206.32 62.65,204.55 63.47,202.76 64.29,201.05 65.11,199.44 65.93,197.80 66.75,196.22 67.58,194.67 68.40,193.17 69.22,191.73 70.04,190.34 70.86,189.07 71.68,187.79 72.50,186.56 73.32,185.41 74.15,184.30 74.97,183.16 75.79,182.14 76.61,181.07 77.43,179.93 78.25,178.75 79.07,177.50 79.90,176.21 80.72,174.85 81.54,173.50 82.36,172.04 83.18,170.56 84.00,169.00 84.82,167.37 85.64,165.68 86.47,163.96 87.29,162.27 88.11,160.61 88.93,158.92 89.75,157.22 90.57,155.51 91.39,153.85 92.22,152.20 93.04,150.58 93.86,148.99 94.68,147.41 95.50,145.82 96.32,144.14 97.14,142.51 97.96,140.86 98.79,139.26 99.61,137.65 100.43,135.99 101.25,134.32 102.07,132.68 102.89,131.09 103.71,129.47 104.54,127.88 105.36,126.32 106.18,124.79 107.00,123.29 107.82,121.76 108.64,120.16 109.46,118.57 110.28,117.08 111.11,115.64 111.93,114.24 112.75,112.85 113.57,111.49 114.39,110.21 115.21,108.93 116.03,107.68 116.86,106.47 117.68,105.28 118.50,104.10 119.32,102.95 120.14,101.83 120.96,100.75 121.78,99.79 122.60,98.88 123.43,98.09 124.25,97.33 125.07,96.60 125.89,95.94 126.71,95.31 127.53,94.71 128.35,94.13 129.17,93.63 130.00,93.17 130.82,92.70 131.64,92.29 132.46,91.92 133.28,91.64 134.10,91.55 134.92,91.59 135.75,91.67 136.57,91.89 137.39,92.20 138.21,92.53 139.03,92.96 139.85,93.45 140.67,94.03 141.49,94.69 142.32,95.44 143.14,96.24 143.96,97.10 144.78,98.00 145.60,98.93 146.42,99.90 147.24,100.88 148.07,101.84 148.89,102.78 149.71,103.75 150.53,104.74 151.35,105.74 152.17,106.81 152.99,107.90 153.81,109.03 154.64,110.18 155.46,111.35 156.28,112.59 157.10,113.86 157.92,115.23 158.74,116.61 159.56,117.95 160.39,119.28 161.21,120.66 162.03,121.92 162.85,123.10 163.67,124.29 164.49,125.47 165.31,126.63 166.13,127.80 166.96,128.94 167.78,130.00 168.60,131.00 169.42,131.95 170.24,132.84 171.06,133.71 171.88,134.55 172.71,135.39 173.53,136.20 174.35,137.04 175.17,137.85 175.99,138.71 176.81,139.58 177.63,140.44 178.45,141.34 179.28,142.28 180.10,143.25 180.92,144.21 181.74,145.18 182.56,146.19 183.38,147.09 184.20,148.00 185.03,148.91 185.85,149.81 186.67,150.65 187.49,151.54 188.31,152.49 189.13,153.44 189.95,154.31 190.77,155.15 191.60,155.92 192.42,156.72 193.24,157.64 194.06,158.62 194.88,159.61 195.70,160.68 196.52,161.80 197.34,162.97 198.17,164.23 198.99,165.63 199.81,167.09 200.63,168.55 201.45,170.00 202.27,171.53 203.09,173.18 203.92,174.84 204.74,176.48 205.56,178.15 206.38,179.88 207.20,181.62 208.02,183.30 208.84,185.00 209.66,186.71 210.49,188.44 211.31,190.22 212.13,192.05 212.95,193.83 213.77,195.58 214.59,197.35 215.41,199.18 216.24,201.01 217.06,202.85 217.88,204.71 218.70,206.47 219.52,208.16 220.34,209.92 221.16,211.64 221.98,213.33 222.81,215.04 223.63,216.68 224.45,218.26 225.27,219.74 226.09,221.22 226.91,222.65 227.73,224.00 228.56,225.25 229.38,226.45 230.20,227.64 231.02,228.78 231.84,229.90 232.66,231.01 233.48,232.17 234.30,233.41 235.13,234.68 235.95,235.94 236.77,237.16 237.59,238.33 238.41,239.50 239.23,240.61 240.05,241.68 240.88,242.68 241.70,243.69 242.52,244.68 243.34,245.63 244.16,246.56 244.98,247.48 245.80,248.33 246.62,249.21 247.45,250.07 248.27,250.92 249.09,251.77 249.91,252.60 250.73,253.44 251.55,254.27 252.37,255.10 253.20,255.95 254.02,256.82 254.84,257.68 255.66,258.54 256.48,259.37 257.30,260.24 258.12,261.11 258.94,262.03 259.77,262.91 260.59,263.75 261.41,264.58 262.23,265.43 263.05,266.27 263.87,267.08 264.69,267.92 265.51,268.76 266.34,269.61 267.16,270.46 267.98,271.38 268.80,272.31 269.62,273.23 270.44,274.13 271.26,275.02 272.09,275.85 272.91,276.71 273.73,277.50 274.55,278.28 275.37,279.01 276.19,279.74 277.01,280.46 277.83,281.14 278.66,281.82 279.48,282.42 280.30,283.01 281.12,283.58 281.94,284.14 282.76,284.61 283.58,285.03 284.41,285.32 285.23,285.49 286.05,285.60 286.87,285.69 287.69,285.74 288.51,285.77 289.33,285.80 290.15,285.83 290.98,285.87 291.80,285.91 292.62,285.98 293.44,286.00 294.26,286.05 295.08,286.12 295.90,286.22 296.73,286.42 297.55,286.48 298.37,286.52 299.19,286.53 300.01,286.50 300.83,286.46 301.65,286.43 302.47,286.40 303.30,286.27 304.12,286.12 304.94,285.97 305.76,285.77 306.58,285.55 307.40,285.30 308.22,285.03 309.05,284.76 309.87,284.51 310.69,284.18 311.51,283.83 312.33,283.41 313.15,282.96 313.97,282.48 314.79,281.99 315.62,281.48 316.44,280.96 317.26,280.39 318.08,279.81 318.90,279.19 319.72,278.55 320.54,277.91 321.37,277.29 322.19,276.66 323.01,276.02 323.83,275.38 324.65,274.73 325.47,274.08 326.29,273.37 327.11,272.64 327.94,271.86 328.76,271.11 329.58,270.36 330.40,269.57 331.22,268.77 332.04,267.97 332.86,267.13 333.69,266.28 334.51,265.36 335.33,264.38 336.15,263.44 336.97,262.41 337.79,261.39 338.61,260.32 339.43,259.10 340.26,257.84 341.08,256.48 341.90,255.06 342.72,253.56 343.54,251.93 344.36,250.23 345.18,248.39 346.00,246.48 346.83,244.43 347.65,242.24 348.47,240.00 349.29,237.75 350.11,235.43 350.93,233.12 351.75,230.86 352.58,228.62 353.40,226.43 354.22,224.29 355.04,222.15 355.86,220.00 356.68,217.96 357.50,215.90 358.32,213.88 359.15,211.88 359.97,209.96 360.79,208.13 361.61,206.32 362.43,204.55 363.25,202.76 364.07,201.05 364.90,199.44 365.72,197.80 366.54,196.22 367.36,194.67 368.18,193.17 369.00,191.73 369.82,190.34 370.64,189.07 371.47,187.79 372.29,186.56 373.11,185.41 373.93,184.30 374.75,183.16 375.57,182.14 376.39,181.07 377.22,179.93 378.04,178.75 378.86,177.50 379.68,176.21 380.50,174.85 381.32,173.50 382.14,172.04 382.96,170.56 383.79,169.00 384.61,167.37 385.43,165.68 386.25,163.96 387.07,162.27 387.89,160.61 388.71,158.92 389.54,157.22 390.36,155.51 391.18,153.85 392.00,152.20 392.82,150.58 393.64,148.99 394.46,147.41 395.28,145.82 396.11,144.14 396.93,142.51 397.75,140.86 398.57,139.26 399.39,137.65 400.21,135.99 401.03,134.32 401.86,132.68 402.68,131.09 403.50,129.47 404.32,127.88 405.14,126.32 405.96,124.79 406.78,123.29 407.60,121.76 408.43,120.16 409.25,118.57 410.07,117.08 410.89,115.64 411.71,114.24 412.53,112.85 413.35,111.49 414.17,110.21 415.00,108.93 415.82,107.68 416.64,106.47 417.46,105.28 418.28,104.10 419.10,102.95 419.92,101.83 420.75,100.75 421.57,99.79 422.39,98.88 423.21,98.09 424.03,97.33 424.85,96.60 425.67,95.94 426.49,95.31 427.32,94.71 428.14,94.13 428.96,93.63 429.78,93.17 430.60,92.70 431.42,92.29 432.24,91.92 433.07,91.64 433.89,91.55 434.71,91.59 435.53,91.67 436.35,91.89 437.17,92.20 437.99,92.53 438.81,92.96 439.64,93.45 440.46,94.03 441.28,94.69 442.10,95.44 442.92,96.24 443.74,97.10 444.56,98.00 445.39,98.93 446.21,99.90 447.03,100.88 447.85,101.84 448.67,102.78 449.49,103.75 450.31,104.74 451.13,105.74 451.96,106.81 452.78,107.90 453.60,109.03 454.42,110.18 455.24,111.35 456.06,112.59 456.88,113.86 457.71,115.23 458.53,116.61 459.35,117.95 460.17,119.28 460.99,120.66 461.81,121.92 462.63,123.10 463.45,124.29 464.28,125.47 465.10,126.63 465.92,127.80 466.74,128.94 467.56,130.00 468.38,131.00 469.20,131.95 470.03,132.84 470.85,133.71 471.67,134.55 472.49,135.39 473.31,136.20 474.13,137.04 474.95,137.85 475.77,138.71 476.60,139.58 477.42,140.44 478.24,141.34 479.06,142.28 479.88,143.25 480.70,144.21 481.52,145.18 482.34,146.19 483.17,147.09 483.99,148.00 484.81,148.91 485.63,149.81 486.45,150.65 487.27,151.54 488.09,152.49 488.92,153.44 489.74,154.31 490.56,155.15 491.38,155.92 492.20,156.72 493.02,157.64 493.84,158.62 494.66,159.61 495.49,160.68 496.31,161.80 497.13,162.97 497.95,164.23 498.77,165.63 499.59,167.09 500.41,168.55 501.24,170.00 502.06,171.53 502.88,173.18 503.70,174.84 504.52,176.48 505.34,178.15 506.16,179.88 506.98,181.62 507.81,183.30 508.63,185.00 509.45,186.71 510.27,188.44 511.09,190.22 511.91,192.05 512.73,193.83 513.56,195.58 514.38,197.35 515.20,199.18 516.02,201.01 516.84,202.85 517.66,204.71 518.48,206.47 519.30,208.16 520.13,209.92 520.95,211.64 521.77,213.33 522.59,215.04 523.41,216.68 524.23,218.26 525.05,219.74 525.88,221.22 526.70,222.65 527.52,224.00 528.34,225.25 529.16,226.45 529.98,227.64 530.80,228.78 531.62,229.90 532.45,231.01 533.27,232.17 534.09,233.41 534.91,234.68 535.73,235.94 536.55,237.16 537.37,238.33 538.20,239.50 539.02,240.61 539.84,241.68 540.66,242.68 541.48,243.69 542.30,244.68 543.12,245.63 543.94,246.56 544.77,247.48 545.59,248.33 546.41,249.21 547.23,250.07 548.05,250.92 548.87,251.77 549.69,252.60 550.51,253.44 551.34,254.27 552.16,255.10 552.98,255.95 553.80,256.82 554.62,257.68 555.44,258.54 556.26,259.37 557.09,260.24 557.91,261.11 558.73,262.03 559.55,262.91 560.37,263.75 561.19,264.58 562.01,265.43 562.83,266.27 563.66,267.08 564.48,267.92 565.30,268.76 566.12,269.61 566.94,270.46 567.76,271.38 568.58,272.31 569.41,273.23 570.23,274.13 571.05,275.02 571.87,275.85 572.69,276.71 573.51,277.50 574.33,278.28 575.15,279.01 575.98,279.74 576.80,280.46 577.62,281.14 578.44,281.82 579.26,282.42 580.08,283.01 580.90,283.58 581.73,284.14 582.55,284.61 583.37,285.03 584.19,285.32 585.01,285.49 585.83,285.60 586.65,285.69 587.47,285.74 588.30,285.77 589.12,285.80 589.94,285.83 590.76,285.87 591.58,285.91 592.40,285.98 593.22,286.00 594.05,286.05 594.87,286.12 595.69,286.22 596.51,286.42 597.33,286.48 598.15,286.52 598.97,286.53 599.79,286.50 600.62,286.46 601.44,286.43 602.26,286.40 603.08,286.27 603.90,286.12 604.72,285.97 605.54,285.77 606.37,285.55 607.19,285.30 608.01,285.03 608.83,284.76 609.65,284.51 610.47,284.18 611.29,283.83 612.11,283.41 612.94,282.96 613.76,282.48 614.58,281.99 615.40,281.48 616.22,280.96 617.04,280.39 617.86,279.81 618.68,279.19 619.51,278.55 620.33,277.91 621.15,277.29 621.97,276.66 622.79,276.02 623.61,275.38 624.43,274.73 625.26,274.08 626.08,273.37 626.90,272.64 627.72,271.86 628.54,271.11 629.36,270.36 630.18,269.57 631.00,268.77 631.83,267.97 632.65,267.13 633.47,266.28 634.29,265.36 635.11,264.38 635.93,263.44 636.75,262.41 637.58,261.39 638.40,260.32 639.22,259.10 640.04,257.84 640.86,256.48 641.68,255.06 642.50,253.56 643.32,251.93 644.15,250.23 644.97,248.39 645.79,246.48 646.61,244.43 647.43,242.24 648.25,240.00 649.07,237.75 649.90,235.43 650.72,233.12 651.54,230.86 652.36,228.62 653.18,226.43 654.00,224.29 654.82,222.15 655.64,220.00 656.47,217.96 657.29,215.90 658.11,213.88 658.93,211.88 659.75,209.96 660.57,208.13 661.39,206.32 662.22,204.55 663.04,202.76 663.86,201.05 664.68,199.44 665.50,197.80 666.32,196.22 667.14,194.67 667.96,193.17 668.79,191.73 669.61,190.34 670.43,189.07 671.25,187.79 672.07,186.56 672.89,185.41 673.71,184.30 674.54,183.16 675.36,182.14 676.18,181.07 677.00,179.93 677.82,178.75 678.64,177.50 679.46,176.21 680.28,174.85 681.11,173.50 681.93,172.04 682.75,170.56 683.57,169.00 684.39,167.37 685.21,165.68 686.03,163.96 686.85,162.27 687.68,160.61 688.50,158.92 689.32,157.22 690.14,155.51 690.96,153.85 691.78,152.20 692.60,150.58 693.43,148.99 694.25,147.41 695.07,145.82 695.89,144.14 696.71,142.51 697.53,140.86 698.35,139.26 699.17,137.65 700.00,135.99 700.82,134.32 701.64,132.68 702.46,131.09 703.28,129.47 704.10,127.88 704.92,126.32 705.75,124.79 706.57,123.29 707.39,121.76 708.21,120.16 709.03,118.57 709.85,117.08 710.67,115.64 711.49,114.24 712.32,112.85 713.14,111.49 713.96,110.21 714.78,108.93 715.60,107.68 716.42,106.47 717.24,105.28 718.07,104.10 718.89,102.95 719.71,101.83 720.53,100.75 721.35,99.79 722.17,98.88 722.99,98.09 723.81,97.33 724.64,96.60 725.46,95.94 726.28,95.31 727.10,94.71 727.92,94.13 728.74,93.63 729.56,93.17 730.39,92.70 731.21,92.29 732.03,91.92 732.85,91.64 733.67,91.55 734.49,91.59 735.31,91.67 736.13,91.89 736.96,92.20 737.78,92.53 738.60,92.96 739.42,93.45 740.24,94.03 741.06,94.69 741.88,95.44 742.71,96.24 743.53,97.10 744.35,98.00 745.17,98.93 745.99,99.90 746.81,100.88 747.63,101.84 748.45,102.78 749.28,103.75 750.10,104.74 750.92,105.74 751.74,106.81 752.56,107.90 753.38,109.03 754.20,110.18 755.02,111.35 755.85,112.59 756.67,113.86 757.49,115.23 758.31,116.61 759.13,117.95 759.95,119.28 760.77,120.66 761.60,121.92 762.42,123.10 763.24,124.29 764.06,125.47 764.88,126.63 765.70,127.80 766.52,128.94 767.34,130.00 768.17,131.00 768.99,131.95 769.81,132.84 770.63,133.71 771.45,134.55 772.27,135.39 773.09,136.20 773.92,137.04 774.74,137.85 775.56,138.71 776.38,139.58 777.20,140.44 778.02,141.34 778.84,142.28 779.66,143.25 780.49,144.21 781.31,145.18 782.13,146.19 782.95,147.09 783.77,148.00 784.59,148.91 785.41,149.81 786.24,150.65 787.06,151.54 787.88,152.49 788.70,153.44 789.52,154.31 790.34,155.15 791.16,155.92 791.98,156.72 792.81,157.64 793.63,158.62 794.45,159.61 795.27,160.68 796.09,161.80 796.91,162.97 797.73,164.23 798.56,165.63 799.38,167.09 800.20,168.55 801.02,170.00 801.84,171.53 802.66,173.18 803.48,174.84 804.30,176.48 805.13,178.15 805.95,179.88 806.77,181.62 807.59,183.30 808.41,185.00 809.23,186.71 810.05,188.44 810.88,190.22 811.70,192.05 812.52,193.83 813.34,195.58 814.16,197.35 814.98,199.18 815.80,201.01 816.62,202.85 817.45,204.71 818.27,206.47 819.09,208.16 819.91,209.92 820.73,211.64 821.55,213.33 822.37,215.04 823.19,216.68 824.02,218.26 824.84,219.74 825.66,221.22 826.48,222.65 827.30,224.00 828.12,225.25 828.94,226.45 829.77,227.64 830.59,228.78 831.41,229.90 832.23,231.01 833.05,232.17 833.87,233.41 834.69,234.68 835.51,235.94 836.34,237.16 837.16,238.33 837.98,239.50 838.80,240.61 839.62,241.68 840.44,242.68 841.26,243.69 842.09,244.68 842.91,245.63 843.73,246.56 844.55,247.48 845.37,248.33 846.19,249.21 847.01,250.07 847.83,250.92 848.66,251.77 849.48,252.60 850.30,253.44 851.12,254.27 851.94,255.10 852.76,255.95 853.58,256.82 854.41,257.68 855.23,258.54 856.05,259.37 856.87,260.24 857.69,261.11 858.51,262.03 859.33,262.91 860.15,263.75 860.98,264.58 861.80,265.43 862.62,266.27 863.44,267.08 864.26,267.92 865.08,268.76 865.90,269.61 866.73,270.46 867.55,271.38 868.37,272.31 869.19,273.23 870.01,274.13 870.83,275.02 871.65,275.85 872.47,276.71 873.30,277.50 874.12,278.28 874.94,279.01 875.76,279.74 876.58,280.46 877.40,281.14 878.22,281.82 879.05,282.42 879.87,283.01 880.69,283.58 881.51,284.14 882.33,284.61 883.15,285.03 883.97,285.32 884.79,285.49 885.62,285.60 886.44,285.69 887.26,285.74 888.08,285.77 888.90,285.80 889.72,285.83 890.54,285.87 891.36,285.91 892.19,285.98 893.01,286.00 893.83,286.05 894.65,286.12 895.47,286.22 896.29,286.42 897.11,286.48 897.94,286.52 898.76,286.53 899.58,286.50 900.40,286.46 901.22,286.43 902.04,286.40 902.86,286.27 903.68,286.12 904.51,285.97 905.33,285.77 906.15,285.55 906.97,285.30 907.79,285.03 908.61,284.76 909.43,284.51 910.26,284.18 911.08,283.83 911.90,283.41 912.72,282.96 913.54,282.48 914.36,281.99 915.18,281.48 916.00,280.96 916.83,280.39 917.65,279.81 918.47,279.19 919.29,278.55 920.11,277.91 920.93,277.29 921.75,276.66 922.58,276.02 923.40,275.38 924.22,274.73 925.04,274.08 925.86,273.37 926.68,272.64 927.50,271.86 928.32,271.11 929.15,270.36 929.97,269.57 930.79,268.77 931.61,267.97 932.43,267.13 933.25,266.28 934.07,265.36 934.90,264.38 935.72,263.44 936.54,262.41 937.36,261.39 938.18,260.32 939.00,259.10 939.82,257.84 940.64,256.48 941.47,255.06 942.29,253.56 943.11,251.93 943.93,250.23 944.75,248.39 945.57,246.48 946.39,244.43 947.22,242.24 948.04,240.00 948.86,237.75 949.68,235.43 950.50,233.12 951.32,230.86 952.14,228.62 952.96,226.43 953.79,224.29 954.61,222.15 955.43,220.00 956.25,217.96 957.07,215.90 957.89,213.88 958.71,211.88 959.53,209.96 960.36,208.13 961.18,206.32 962.00,204.55 962.82,202.76 963.64,201.05 964.46,199.44 965.28,197.80 966.11,196.22 966.93,194.67 967.75,193.17 968.57,191.73 969.39,190.34 970.21,189.07 971.03,187.79 971.85,186.56 972.68,185.41 973.50,184.30 974.32,183.16 975.14,182.14 975.96,181.07 976.78,179.93 977.60,178.75 978.43,177.50 979.25,176.21 980.07,174.85 980.89,173.50 981.71,172.04 982.53,170.56 983.35,169.00 984.17,167.37 985.00,165.68 985.82,163.96 986.64,162.27 987.46,160.61 988.28,158.92 989.10,157.22 989.92,155.51 990.75,153.85 991.57,152.20 992.39,150.58 993.21,148.99 994.03,147.41 994.85,145.82 995.67,144.14 996.49,142.51 997.32,140.86 998.14,139.26 998.96,137.65 999.78,135.99 1000.60,134.32 1001.42,132.68 1002.24,131.09 1003.07,129.47 1003.89,127.88 1004.71,126.32 1005.53,124.79 1006.35,123.29 1007.17,121.76 1007.99,120.16 1008.81,118.57 1009.64,117.08 1010.46,115.64 1011.28,114.24 1012.10,112.85 1012.92,111.49 1013.74,110.21 1014.56,108.93 1015.39,107.68 1016.21,106.47 1017.03,105.28 1017.85,104.10 1018.67,102.95 1019.49,101.83 1020.31,100.75 1021.13,99.79 1021.96,98.88 1022.78,98.09 1023.60,97.33 1024.42,96.60 1025.24,95.94 1026.06,95.31 1026.88,94.71 1027.70,94.13 1028.53,93.63 1029.35,93.17 1030.17,92.70 1030.99,92.29 1031.81,91.92 1032.63,91.64 1033.45,91.55 1034.28,91.59 1035.10,91.67 1035.92,91.89 1036.74,92.20 1037.56,92.53 1038.38,92.96 1039.20,93.45 1040.02,94.03 1040.85,94.69 1041.67,95.44 1042.49,96.24 1043.31,97.10 1044.13,98.00 1044.95,98.93 1045.77,99.90 1046.60,100.88 1047.42,101.84 1048.24,102.78 1049.06,103.75 1049.88,104.74 1050.70,105.74 1051.52,106.81 1052.34,107.90 1053.17,109.03 1053.99,110.18 1054.81,111.35 1055.63,112.59 1056.45,113.86 1057.27,115.23 1058.09,116.61 1058.92,117.95 1059.74,119.28 1060.56,120.66 1061.38,121.92 1062.20,123.10 1063.02,124.29 1063.84,125.47 1064.66,126.63 1065.49,127.80 1066.31,128.94 1067.13,130.00 1067.95,131.00 1068.77,131.95 1069.59,132.84 1070.41,133.71 1071.24,134.55 1072.06,135.39 1072.88,136.20 1073.70,137.04 1074.52,137.85 "
         style="stroke-width: 2.13; stroke: #8B0000; stroke-dasharray: 2.85,8.54,11.38,8.54; stroke-linecap: butt;"
         id="polyline7" />
      <rect
         x="102.07"
         y="44.68"
         width="15.61"
         height="297.29"
         style="stroke-width: 1.07; stroke: none; stroke-linecap: butt; stroke-linejoin: miter; fill: #FF0000; fill-opacity: 0.20;"
         id="rect7" />
      <rect
         x="644.15"
         y="44.68"
         width="11.50"
         height="297.29"
         style="stroke-width: 1.07; stroke: none; stroke-linecap: butt; stroke-linejoin: miter; fill: #FF0000; fill-opacity: 0.20;"
         id="rect8" />
      <rect
         x="995.67"
         y="44.68"
         width="6.57"
         height="297.29"
         style="stroke-width: 1.07; stroke: none; stroke-linecap: butt; stroke-linejoin: miter; fill: #FF0000; fill-opacity: 0.20;"
         id="rect9" />
      <rect
         x="1026.06"
         y="44.68"
         width="12.32"
         height="297.29"
         style="stroke-width: 1.07; stroke: none; stroke-linecap: butt; stroke-linejoin: miter; fill: #FF0000; fill-opacity: 0.20;"
         id="rect10" />
      <polygon
         points="102.07,114.82 102.89,107.33 103.71,106.43 104.54,103.43 105.36,108.83 106.18,105.23 107.00,99.84 107.82,98.34 108.64,96.54 109.46,88.45 110.28,94.15 111.11,98.64 111.93,100.14 112.75,93.55 113.57,92.35 114.39,94.45 115.21,97.14 116.03,90.25 116.86,98.94 117.68,105.28 117.68,119.01 116.86,106.47 116.03,107.68 115.21,108.93 114.39,110.21 113.57,111.49 112.75,112.85 111.93,114.24 111.11,115.64 110.28,117.08 109.46,118.57 108.64,120.16 107.82,121.76 107.00,123.29 106.18,124.79 105.36,126.32 104.54,127.88 103.71,129.47 102.89,131.09 102.07,132.68 "
         style="stroke-width: 0.00; stroke: none; stroke-linecap: butt; fill: #FF0000;"
         id="polygon10" />
      <polyline
         points="102.07,114.82 102.89,107.33 103.71,106.43 104.54,103.43 105.36,108.83 106.18,105.23 107.00,99.84 107.82,98.34 108.64,96.54 109.46,88.45 110.28,94.15 111.11,98.64 111.93,100.14 112.75,93.55 113.57,92.35 114.39,94.45 115.21,97.14 116.03,90.25 116.86,98.94 117.68,105.28 "
         style="stroke-width: 1.07; stroke: none; stroke-linecap: butt;"
         id="polyline10" />
      <polyline
         points="117.68,119.01 116.86,106.47 116.03,107.68 115.21,108.93 114.39,110.21 113.57,111.49 112.75,112.85 111.93,114.24 111.11,115.64 110.28,117.08 109.46,118.57 108.64,120.16 107.82,121.76 107.00,123.29 106.18,124.79 105.36,126.32 104.54,127.88 103.71,129.47 102.89,131.09 102.07,132.68 "
         style="stroke-width: 1.07; stroke: none; stroke-linecap: butt;"
         id="polyline11" />
      <polygon
         points="644.15,221.49 644.97,213.10 645.79,210.70 646.61,203.51 647.43,198.42 648.25,196.02 649.07,193.32 649.90,183.43 650.72,178.34 651.54,184.33 652.36,190.62 653.18,196.32 654.00,203.51 654.82,208.60 655.64,204.71 655.64,220.00 654.82,222.15 654.00,224.29 653.18,226.43 652.36,228.62 651.54,230.86 650.72,233.12 649.90,235.43 649.07,237.75 648.25,240.00 647.43,242.24 646.61,244.43 645.79,246.48 644.97,248.39 644.15,250.23 "
         style="stroke-width: 0.00; stroke: none; stroke-linecap: butt; fill: #FF0000;"
         id="polygon11" />
      <polyline
         points="644.15,221.49 644.97,213.10 645.79,210.70 646.61,203.51 647.43,198.42 648.25,196.02 649.07,193.32 649.90,183.43 650.72,178.34 651.54,184.33 652.36,190.62 653.18,196.32 654.00,203.51 654.82,208.60 655.64,204.71 "
         style="stroke-width: 1.07; stroke: none; stroke-linecap: butt;"
         id="polyline12" />
      <polyline
         points="655.64,220.00 654.82,222.15 654.00,224.29 653.18,226.43 652.36,228.62 651.54,230.86 650.72,233.12 649.90,235.43 649.07,237.75 648.25,240.00 647.43,242.24 646.61,244.43 645.79,246.48 644.97,248.39 644.15,250.23 "
         style="stroke-width: 1.07; stroke: none; stroke-linecap: butt;"
         id="polyline13" />
      <polygon
         points="995.67,124.11 996.49,120.81 997.32,119.31 998.14,118.71 998.96,116.92 999.78,116.02 1000.60,111.52 1001.42,121.11 1002.24,122.61 1002.24,131.09 1001.42,132.68 1000.60,134.32 999.78,135.99 998.96,137.65 998.14,139.26 997.32,140.86 996.49,142.51 995.67,144.14 "
         style="stroke-width: 0.00; stroke: none; stroke-linecap: butt; fill: #FF0000;"
         id="polygon13" />
      <polyline
         points="995.67,124.11 996.49,120.81 997.32,119.31 998.14,118.71 998.96,116.92 999.78,116.02 1000.60,111.52 1001.42,121.11 1002.24,122.61 "
         style="stroke-width: 1.07; stroke: none; stroke-linecap: butt;"
         id="polyline14" />
      <polyline
         points="1002.24,131.09 1001.42,132.68 1000.60,134.32 999.78,135.99 998.96,137.65 998.14,139.26 997.32,140.86 996.49,142.51 995.67,144.14 "
         style="stroke-width: 1.07; stroke: none; stroke-linecap: butt;"
         id="polyline15" />
      <polygon
         points="1026.06,73.47 1026.88,72.57 1027.70,74.07 1028.53,77.37 1029.35,75.27 1030.17,69.88 1030.99,71.67 1031.81,76.47 1032.63,76.77 1033.45,72.87 1034.28,61.19 1035.10,61.49 1035.92,66.58 1036.74,73.47 1037.56,77.37 1038.38,81.56 1038.38,92.96 1037.56,92.53 1036.74,92.20 1035.92,91.89 1035.10,91.67 1034.28,91.59 1033.45,91.55 1032.63,91.64 1031.81,91.92 1030.99,92.29 1030.17,92.70 1029.35,93.17 1028.53,93.63 1027.70,94.13 1026.88,94.71 1026.06,95.31 "
         style="stroke-width: 0.00; stroke: none; stroke-linecap: butt; fill: #FF0000;"
         id="polygon15" />
      <polyline
         points="1026.06,73.47 1026.88,72.57 1027.70,74.07 1028.53,77.37 1029.35,75.27 1030.17,69.88 1030.99,71.67 1031.81,76.47 1032.63,76.77 1033.45,72.87 1034.28,61.19 1035.10,61.49 1035.92,66.58 1036.74,73.47 1037.56,77.37 1038.38,81.56 "
         style="stroke-width: 1.07; stroke: none; stroke-linecap: butt;"
         id="polyline16" />
      <polyline
         points="1038.38,92.96 1037.56,92.53 1036.74,92.20 1035.92,91.89 1035.10,91.67 1034.28,91.59 1033.45,91.55 1032.63,91.64 1031.81,91.92 1030.99,92.29 1030.17,92.70 1029.35,93.17 1028.53,93.63 1027.70,94.13 1026.88,94.71 1026.06,95.31 "
         style="stroke-width: 1.07; stroke: none; stroke-linecap: butt;"
         id="polyline17" />
      <text
         x="110.28"
         y="62.26"
         text-anchor="middle"
         style="font-size: 11.38px; font-weight: bold; font-family: &quot;Arial&quot;;"
         textLength="3.16px"
         lengthAdjust="spacingAndGlyphs"
         id="text17">I</text>
      <text
         x="649.90"
         y="62.26"
         text-anchor="middle"
         style="font-size: 11.38px; font-weight: bold; font-family: &quot;Arial&quot;;"
         textLength="6.31px"
         lengthAdjust="spacingAndGlyphs"
         id="text18">II</text>
      <text
         x="998.96"
         y="62.26"
         text-anchor="middle"
         style="font-size: 11.38px; font-weight: bold; font-family: &quot;Arial&quot;;"
         textLength="9.47px"
         lengthAdjust="spacingAndGlyphs"
         id="text19">III</text>
      <text
         x="1032.63"
         y="62.26"
         text-anchor="middle"
         style="font-size: 11.38px; font-weight: bold; font-family: &quot;Arial&quot;;"
         textLength="10.75px"
         lengthAdjust="spacingAndGlyphs"
         id="text20">IV</text>
      <rect
         x="61.00"
         y="44.68"
         width="1013.52"
         height="297.29"
         style="stroke-width: 1.07; stroke: #333333;"
         id="rect20" />
    </g>
    <g
       clip-path="url(#cpMC4wMHwxMDgwLjAwfDAuMDB8NDMyLjAw)"
       id="g64">
      <text
         x="56.07"
         y="273.66"
         text-anchor="end"
         style="font-size: 16.00px; font-family: &quot;Arial&quot;;"
         textLength="31.17px"
         lengthAdjust="spacingAndGlyphs"
         id="text21">22.5</text>
      <text
         x="56.07"
         y="198.75"
         text-anchor="end"
         style="font-size: 16.00px; font-family: &quot;Arial&quot;;"
         textLength="31.17px"
         lengthAdjust="spacingAndGlyphs"
         id="text22">25.0</text>
      <text
         x="56.07"
         y="123.84"
         text-anchor="end"
         style="font-size: 16.00px; font-family: &quot;Arial&quot;;"
         textLength="31.17px"
         lengthAdjust="spacingAndGlyphs"
         id="text23">27.5</text>
      <polyline
         points="58.27,267.93 61.00,267.93 "
         style="stroke-width: 1.07; stroke: #333333; stroke-linecap: butt;"
         id="polyline23" />
      <polyline
         points="58.27,193.02 61.00,193.02 "
         style="stroke-width: 1.07; stroke: #333333; stroke-linecap: butt;"
         id="polyline24" />
      <polyline
         points="58.27,118.12 61.00,118.12 "
         style="stroke-width: 1.07; stroke: #333333; stroke-linecap: butt;"
         id="polyline25" />
      <polyline
         points="122.60,344.71 122.60,341.97 "
         style="stroke-width: 1.07; stroke: #333333; stroke-linecap: butt;"
         id="polyline26" />
      <polyline
         points="198.17,344.71 198.17,341.97 "
         style="stroke-width: 1.07; stroke: #333333; stroke-linecap: butt;"
         id="polyline27" />
      <polyline
         points="273.73,344.71 273.73,341.97 "
         style="stroke-width: 1.07; stroke: #333333; stroke-linecap: butt;"
         id="polyline28" />
      <polyline
         points="346.83,344.71 346.83,341.97 "
         style="stroke-width: 1.07; stroke: #333333; stroke-linecap: butt;"
         id="polyline29" />
      <polyline
         points="422.39,344.71 422.39,341.97 "
         style="stroke-width: 1.07; stroke: #333333; stroke-linecap: butt;"
         id="polyline30" />
      <polyline
         points="497.95,344.71 497.95,341.97 "
         style="stroke-width: 1.07; stroke: #333333; stroke-linecap: butt;"
         id="polyline31" />
      <polyline
         points="573.51,344.71 573.51,341.97 "
         style="stroke-width: 1.07; stroke: #333333; stroke-linecap: butt;"
         id="polyline32" />
      <polyline
         points="646.61,344.71 646.61,341.97 "
         style="stroke-width: 1.07; stroke: #333333; stroke-linecap: butt;"
         id="polyline33" />
      <polyline
         points="722.17,344.71 722.17,341.97 "
         style="stroke-width: 1.07; stroke: #333333; stroke-linecap: butt;"
         id="polyline34" />
      <polyline
         points="797.73,344.71 797.73,341.97 "
         style="stroke-width: 1.07; stroke: #333333; stroke-linecap: butt;"
         id="polyline35" />
      <polyline
         points="873.30,344.71 873.30,341.97 "
         style="stroke-width: 1.07; stroke: #333333; stroke-linecap: butt;"
         id="polyline36" />
      <polyline
         points="946.39,344.71 946.39,341.97 "
         style="stroke-width: 1.07; stroke: #333333; stroke-linecap: butt;"
         id="polyline37" />
      <polyline
         points="1021.96,344.71 1021.96,341.97 "
         style="stroke-width: 1.07; stroke: #333333; stroke-linecap: butt;"
         id="polyline38" />
      <text
         transform="translate(130.70,355.00) rotate(-45)"
         text-anchor="end"
         style="font-size: 16.00px; font-family: &quot;Arial&quot;;"
         textLength="68.56px"
         lengthAdjust="spacingAndGlyphs"
         id="text38">Aug 2016</text>
      <text
         transform="translate(206.27,355.00) rotate(-45)"
         text-anchor="end"
         style="font-size: 16.00px; font-family: &quot;Arial&quot;;"
         textLength="68.55px"
         lengthAdjust="spacingAndGlyphs"
         id="text39">Nov 2016</text>
      <text
         transform="translate(281.83,355.00) rotate(-45)"
         text-anchor="end"
         style="font-size: 16.00px; font-family: &quot;Arial&quot;;"
         textLength="67.67px"
         lengthAdjust="spacingAndGlyphs"
         id="text40">Feb 2017</text>
      <text
         transform="translate(354.93,355.00) rotate(-45)"
         text-anchor="end"
         style="font-size: 16.00px; font-family: &quot;Arial&quot;;"
         textLength="70.31px"
         lengthAdjust="spacingAndGlyphs"
         id="text41">May 2017</text>
      <text
         transform="translate(430.49,355.00) rotate(-45)"
         text-anchor="end"
         style="font-size: 16.00px; font-family: &quot;Arial&quot;;"
         textLength="68.56px"
         lengthAdjust="spacingAndGlyphs"
         id="text42">Aug 2017</text>
      <text
         transform="translate(506.05,355.00) rotate(-45)"
         text-anchor="end"
         style="font-size: 16.00px; font-family: &quot;Arial&quot;;"
         textLength="68.55px"
         lengthAdjust="spacingAndGlyphs"
         id="text43">Nov 2017</text>
      <text
         transform="translate(581.61,355.00) rotate(-45)"
         text-anchor="end"
         style="font-size: 16.00px; font-family: &quot;Arial&quot;;"
         textLength="67.67px"
         lengthAdjust="spacingAndGlyphs"
         id="text44">Feb 2018</text>
      <text
         transform="translate(654.71,355.00) rotate(-45)"
         text-anchor="end"
         style="font-size: 16.00px; font-family: &quot;Arial&quot;;"
         textLength="70.31px"
         lengthAdjust="spacingAndGlyphs"
         id="text45">May 2018</text>
      <text
         transform="translate(730.27,355.00) rotate(-45)"
         text-anchor="end"
         style="font-size: 16.00px; font-family: &quot;Arial&quot;;"
         textLength="68.56px"
         lengthAdjust="spacingAndGlyphs"
         id="text46">Aug 2018</text>
      <text
         transform="translate(805.83,355.00) rotate(-45)"
         text-anchor="end"
         style="font-size: 16.00px; font-family: &quot;Arial&quot;;"
         textLength="68.55px"
         lengthAdjust="spacingAndGlyphs"
         id="text47">Nov 2018</text>
      <text
         transform="translate(881.40,355.00) rotate(-45)"
         text-anchor="end"
         style="font-size: 16.00px; font-family: &quot;Arial&quot;;"
         textLength="67.67px"
         lengthAdjust="spacingAndGlyphs"
         id="text48">Feb 2019</text>
      <text
         transform="translate(954.49,355.00) rotate(-45)"
         text-anchor="end"
         style="font-size: 16.00px; font-family: &quot;Arial&quot;;"
         textLength="70.31px"
         lengthAdjust="spacingAndGlyphs"
         id="text49">May 2019</text>
      <text
         transform="translate(1030.06,355.00) rotate(-45)"
         text-anchor="end"
         style="font-size: 16.00px; font-family: &quot;Arial&quot;;"
         textLength="68.56px"
         lengthAdjust="spacingAndGlyphs"
         id="text50">Aug 2019</text>
      <text
         x="567.76"
         y="422.73"
         text-anchor="middle"
         style="font-size: 18.00px; font-family: &quot;Arial&quot;;"
         textLength="38.03px"
         lengthAdjust="spacingAndGlyphs"
         id="text51">Date</text>
      <text
         transform="translate(18.37,193.32) rotate(-90)"
         text-anchor="middle"
         style="font-size: 18.00px; font-family: &quot;Arial&quot;;"
         textLength="136.30px"
         lengthAdjust="spacingAndGlyphs"
         id="text52">Temperature [°C]</text>
      <rect
         x="218.36"
         y="5.48"
         width="130.99"
         height="28.24"
         style="stroke-width: 1.07; stroke: none; fill: #FFFFFF;"
         id="rect52" />
      <rect
         x="248.01"
         y="10.96"
         width="17.28"
         height="17.28"
         style="stroke-width: 1.07; stroke: none; fill: #FFFFFF;"
         id="rect53" />
      <rect
         x="360.32"
         y="5.48"
         width="556.85"
         height="28.24"
         style="stroke-width: 1.07; stroke: none; fill: #FFFFFF;"
         id="rect55" />
      <text
         x="365.79999"
         y="25.33"
         style="font-weight:bold;font-size:16px;font-family:Arial"
         textLength="48.939999"
         lengthAdjust="spacingAndGlyphs"
         id="text56" />
      <rect
         x="420.21"
         y="10.96"
         width="17.28"
         height="17.28"
         style="stroke-width: 1.07; stroke: none; fill: #FFFFFF;"
         id="rect56" />
      <line
         x1="603.44"
         y1="19.6"
         x2="617.26001"
         y2="19.6"
         style="stroke:#8b0000;stroke-width:2.13;stroke-linecap:butt;stroke-dasharray:2.85, 8.54, 11.38, 8.54"
         id="line56" />
      <rect
         x="649.89"
         y="10.96"
         width="17.28"
         height="17.28"
         style="stroke-width: 1.07; stroke: none; fill: #FFFFFF;"
         id="rect57" />
      <line
         x1="437.12"
         y1="19.6"
         x2="450.94"
         y2="19.6"
         style="stroke:#0000ff;stroke-width:2.13;stroke-linecap:butt;stroke-dasharray:11.38, 11.38;fill:#f9f9f9"
         id="line57" />
      <rect
         x="810.38"
         y="10.96"
         width="17.28"
         height="17.28"
         style="stroke-width: 1.07; stroke: none; fill: #FFFFFF;"
         id="rect58" />
      <line
         x1="311.10999"
         y1="19.6"
         x2="324.92999"
         y2="19.6"
         style="stroke-width:2.13;stroke-linecap:butt"
         id="line58" />
      <text
         x="442.97"
         y="23.139999"
         style="font-size:14px;font-family:Arial"
         textLength="34.98"
         lengthAdjust="spacingAndGlyphs"
         id="text58"
         transform="translate(181.5)">MHW</text>
      <text
         x="481.85001"
         y="23.139999"
         style="font-size:14px;font-family:Arial"
         textLength="57.560001"
         lengthAdjust="spacingAndGlyphs"
         id="text59"
         transform="translate(181.5)">threshold</text>
      <text
         x="543.29999"
         y="23.139999"
         style="font-size:14px;font-family:Arial"
         textLength="31.889999"
         lengthAdjust="spacingAndGlyphs"
         id="text60"
         transform="translate(181.5)">(90th</text>
      <text
         x="579.08002"
         y="23.139999"
         style="font-size:14px;font-family:Arial"
         textLength="65.330002"
         lengthAdjust="spacingAndGlyphs"
         id="text61"
         transform="translate(181.5)">precentile)</text>
      <text
         x="672.65002"
         y="23.139999"
         style="font-size:14px;font-family:Arial"
         textLength="58.360001"
         lengthAdjust="spacingAndGlyphs"
         id="text62"
         transform="translate(-214.5)">Seasonal</text>
      <text
         x="734.90002"
         y="23.139999"
         style="font-size:14px;font-family:Arial"
         textLength="70"
         lengthAdjust="spacingAndGlyphs"
         id="text63"
         transform="translate(-214.5)">climatology</text>
      <text
         x="833.14001"
         y="23.139999"
         style="font-size:14px;font-family:Arial"
         textLength="78.550003"
         lengthAdjust="spacingAndGlyphs"
         id="text64"
         transform="translate(-501)">Temperature</text>
      <rect
         style="fill:#8b0000;fill-opacity:1;stroke:#000000;stroke-width:0.75;stroke-opacity:0"
         id="rect65"
         width="5.971396"
         height="2.1531477"
         x="606.24023"
         y="18.517069" />
      <rect
         style="fill:#f9f9f9;fill-opacity:1;stroke:#000000;stroke-width:0.75;stroke-opacity:0"
         id="rect66"
         width="2.6327381"
         height="3.6393733"
         x="441.99023"
         y="18.041998" />
    </g>
  </g>
  <rect
     x="851.85272"
     y="10.288871"
     width="15.86"
     height="15.86"
     style="fill:#ff0000;fill-opacity:0.2;stroke:none;stroke-width:1.07;stroke-linecap:butt;stroke-linejoin:miter;stroke-miterlimit:10"
     id="rect54" />
  <text
     x="270.76999"
     y="23.139999"
     style="font-size:14px;font-family:Arial;white-space:pre"
     textLength="34.98"
     lengthAdjust="spacingAndGlyphs"
     id="text54"
     transform="translate(603.1327,-1.3811293)">MHW</text>
  <text
     x="309.64001"
     y="23.139999"
     style="font-size:14px;font-family:Arial;white-space:pre"
     textLength="34.23"
     lengthAdjust="spacingAndGlyphs"
     id="text55"
     transform="translate(603.1327,-1.3811293)">event</text>
</svg>
